<?xml version="1.0" encoding="UTF-8" standalone="no"?>
<!-- Created with Inkscape (http://www.inkscape.org/) -->

<svg
   width="1122.5197"
   height="300"
   viewBox="0 0 296.99998 79.374998"
   version="1.1"
   id="svg1"
   inkscape:version="1.3.2 (091e20e, 2023-11-25, custom)"
   sodipodi:docname="logo3.svg"
   inkscape:export-filename="Desktop\logo3.pdf"
   inkscape:export-xdpi="96"
   inkscape:export-ydpi="96"
   xmlns:inkscape="http://www.inkscape.org/namespaces/inkscape"
   xmlns:sodipodi="http://sodipodi.sourceforge.net/DTD/sodipodi-0.dtd"
   xmlns:xlink="http://www.w3.org/1999/xlink"
   xmlns="http://www.w3.org/2000/svg"
   xmlns:svg="http://www.w3.org/2000/svg">
  <sodipodi:namedview
     id="namedview1"
     pagecolor="#ffffff"
     bordercolor="#000000"
     borderopacity="0.25"
     inkscape:showpageshadow="2"
     inkscape:pageopacity="0.0"
     inkscape:pagecheckerboard="0"
     inkscape:deskcolor="#d1d1d1"
     inkscape:document-units="mm"
     inkscape:zoom="1.0520974"
     inkscape:cx="538.92351"
     inkscape:cy="181.06689"
     inkscape:window-width="2560"
     inkscape:window-height="1377"
     inkscape:window-x="-8"
     inkscape:window-y="-8"
     inkscape:window-maximized="1"
     inkscape:current-layer="layer1" />
  <defs
     id="defs1">
    <inkscape:path-effect
       effect="perspective-envelope"
       up_left_point="89.9,21.76"
       up_right_point="289.78,21.76"
       down_left_point="80.896697,28.639889"
       down_right_point="280.778,28.639889"
       id="path-effect106"
       is_visible="true"
       lpeversion="1"
       deform_type="perspective"
       horizontal_mirror="false"
       vertical_mirror="false"
       overflow_perspective="false" />
    <linearGradient
       inkscape:collect="always"
       xlink:href="#linearGradient60"
       id="linearGradient6"
       x1="74.752762"
       y1="34.20911"
       x2="274.63406"
       y2="34.20911"
       gradientUnits="userSpaceOnUse"
       gradientTransform="translate(-1.0634384,3.4028309)" />
    <linearGradient
       id="linearGradient60"
       inkscape:collect="always">
      <stop
         style="stop-color:#9958f3;stop-opacity:1;"
         offset="0.07662082"
         id="stop59" />
      <stop
         style="stop-color:#4feac8;stop-opacity:1;"
         offset="1"
         id="stop60" />
    </linearGradient>
    <linearGradient
       inkscape:collect="always"
       xlink:href="#linearGradient60"
       id="linearGradient18"
       gradientUnits="userSpaceOnUse"
       gradientTransform="matrix(1.0628735,0,0,1.0628735,-184.42977,-154.89746)"
       x1="194.35774"
       y1="181.99606"
       x2="233.83328"
       y2="181.99606" />
  </defs>
  <g
     inkscape:label="Layer 1"
     inkscape:groupmode="layer"
     id="layer1">
    <path
       style="font-weight:600;font-size:14.8181px;font-family:Lexend;-inkscape-font-specification:'Lexend Semi-Bold';letter-spacing:0px;baseline-shift:baseline;fill:url(#linearGradient6);fill-opacity:1;stroke:none;stroke-width:0.529167;stroke-opacity:1"
       d="m 78.920111,43.553997 q -1.140994,0 -2.10417,-0.385271 -0.948359,-0.400089 -1.659627,-1.111358 -0.696451,-0.726086 -1.081722,-1.704081 -0.38527,-0.992813 -0.38527,-2.163443 0,-1.140993 0.400088,-2.10417 0.400089,-0.977994 1.126176,-1.689263 0.726087,-0.726087 1.704081,-1.126176 0.977995,-0.400089 2.118989,-0.400089 0.740905,0 1.452174,0.207454 0.726086,0.192635 1.31881,0.577906 0.607543,0.38527 1.037267,0.918722 l -1.392901,1.541082 q -0.355634,-0.355634 -0.740905,-0.607542 -0.370452,-0.266726 -0.800177,-0.400088 -0.414907,-0.148181 -0.889086,-0.148181 -0.637179,0 -1.200266,0.237089 -0.54827,0.23709 -0.963177,0.666815 -0.414907,0.414906 -0.666814,1.022449 -0.23709,0.592724 -0.23709,1.31881 0,0.740905 0.23709,1.348448 0.237089,0.592724 0.666814,1.022448 0.429725,0.414907 1.022449,0.651997 0.607542,0.222271 1.333629,0.222271 0.474179,0 0.918722,-0.133363 0.444543,-0.133362 0.814996,-0.370452 0.38527,-0.23709 0.681632,-0.54827 l 1.081722,1.733718 q -0.355635,0.400089 -0.963177,0.726087 -0.592724,0.325998 -1.333629,0.518633 -0.740905,0.177818 -1.496628,0.177818 z m 9.009392,0 q -1.200266,0 -2.148624,-0.518634 -0.93354,-0.533452 -1.48181,-1.452174 -0.533452,-0.918722 -0.533452,-2.10417 0,-1.185448 0.533452,-2.089352 0.54827,-0.918722 1.48181,-1.452174 0.948358,-0.533451 2.148624,-0.533451 1.185448,0 2.118989,0.533451 0.948358,0.533452 1.48181,1.452174 0.533451,0.903904 0.533451,2.089352 0,1.185448 -0.533451,2.10417 -0.533452,0.918722 -1.48181,1.452174 -0.933541,0.518634 -2.118989,0.518634 z m 0,-1.837445 q 0.577906,0 1.037267,-0.281544 0.459362,-0.296362 0.711269,-0.800177 0.266726,-0.518634 0.266726,-1.155812 0,-0.651996 -0.266726,-1.155812 -0.251907,-0.518633 -0.711269,-0.800177 -0.459361,-0.296362 -1.037267,-0.296362 -0.592724,0 -1.052085,0.296362 -0.459361,0.296362 -0.726087,0.800177 -0.266725,0.503816 -0.251907,1.155812 -0.01482,0.637178 0.251907,1.155812 0.266726,0.503815 0.726087,0.800177 0.459361,0.281544 1.052085,0.281544 z m 8.372219,1.837445 q -1.096539,0 -1.955989,-0.355635 -0.844632,-0.370452 -1.363265,-1.007631 l 1.303992,-1.126175 q 0.459362,0.488997 1.022449,0.711269 0.563088,0.207453 1.126176,0.207453 0.222271,0 0.400089,-0.04445 0.192635,-0.05927 0.325998,-0.148181 0.133363,-0.103727 0.192635,-0.23709 0.07409,-0.148181 0.07409,-0.31118 0,-0.325998 -0.266726,-0.518634 -0.148181,-0.07409 -0.459361,-0.177817 -0.31118,-0.118545 -0.800178,-0.251907 -0.755723,-0.192636 -1.289174,-0.444543 -0.518634,-0.266726 -0.829814,-0.592724 -0.266726,-0.311181 -0.414907,-0.666815 -0.133363,-0.370452 -0.133363,-0.814995 0,-0.533452 0.23709,-0.963177 0.23709,-0.444543 0.651996,-0.755723 0.429725,-0.31118 0.977995,-0.474179 0.54827,-0.177817 1.155812,-0.177817 0.607542,0 1.185448,0.148181 0.577906,0.148181 1.066903,0.429724 0.503814,0.266726 0.874264,0.637179 l -1.126172,1.24472 q -0.266726,-0.251908 -0.607542,-0.459361 -0.325998,-0.207453 -0.681632,-0.325998 -0.355635,-0.118545 -0.637179,-0.118545 -0.251907,0 -0.459361,0.04445 -0.192635,0.04445 -0.325998,0.133363 -0.133363,0.08891 -0.207453,0.23709 -0.05927,0.133363 -0.05927,0.296362 0,0.162999 0.07409,0.31118 0.08891,0.148181 0.237089,0.251908 0.162999,0.08891 0.474179,0.207453 0.325999,0.118545 0.874268,0.266726 0.711269,0.192635 1.200266,0.429725 0.503816,0.237089 0.800175,0.548269 0.25191,0.266726 0.37045,0.607543 0.11855,0.340816 0.11855,0.755723 0,0.726087 -0.41491,1.303992 -0.400085,0.563088 -1.111354,0.889086 -0.711269,0.311181 -1.600356,0.311181 z m 4.608418,-0.148181 v -7.838775 h 2.03008 l 0.0445,1.496628 -0.31118,0.05927 q 0.163,-0.38527 0.42972,-0.696451 0.26673,-0.31118 0.62236,-0.533451 0.37046,-0.222272 0.77054,-0.340816 0.40009,-0.133363 0.80018,-0.133363 0.60754,0 1.09654,0.192635 0.489,0.192635 0.82982,0.607542 0.34081,0.400089 0.53345,1.066903 l -0.326,-0.02964 0.10373,-0.23709 q 0.19263,-0.355634 0.48899,-0.637178 0.29636,-0.296362 0.66682,-0.503815 0.37045,-0.222272 0.77054,-0.340817 0.40009,-0.118544 0.78536,-0.118544 0.91872,0 1.52626,0.370452 0.60754,0.355635 0.90391,1.081721 0.31118,0.726087 0.31118,1.778172 v 4.756611 h -2.10417 v -4.60843 q 0,-0.533451 -0.14819,-0.874267 -0.14818,-0.340817 -0.42972,-0.503816 -0.28154,-0.177817 -0.72609,-0.177817 -0.34081,0 -0.63718,0.118545 -0.28154,0.103726 -0.50381,0.31118 -0.20745,0.192635 -0.326,0.459361 -0.11854,0.266726 -0.11854,0.592724 v 4.68252 h -2.10417 v -4.623248 q 0,-0.488997 -0.163,-0.829813 -0.14818,-0.355635 -0.42973,-0.533452 -0.28154,-0.177817 -0.69645,-0.177817 -0.34081,0 -0.63718,0.118545 -0.28154,0.103726 -0.48899,0.31118 -0.20746,0.192635 -0.34082,0.459361 -0.11855,0.266726 -0.11855,0.577906 v 4.697338 z m 17.79654,0.148181 q -1.27436,0 -2.22272,-0.518634 -0.94836,-0.518633 -1.48181,-1.422538 -0.53345,-0.903904 -0.53345,-2.074534 0,-0.903904 0.29636,-1.659627 0.29636,-0.755723 0.82981,-1.303993 0.53346,-0.563087 1.25954,-0.859449 0.74091,-0.31118 1.60036,-0.31118 0.80018,0 1.48181,0.296362 0.68163,0.281543 1.17063,0.814995 0.50381,0.518634 0.77054,1.229902 0.26673,0.711269 0.23709,1.555901 l -0.0148,0.651996 h -6.29769 l -0.34082,-1.289174 h 4.90479 l -0.23709,0.266725 v -0.325998 q -0.0296,-0.400089 -0.26672,-0.726087 -0.22227,-0.325998 -0.57791,-0.503815 -0.35563,-0.177817 -0.80018,-0.177817 -0.65199,0 -1.11135,0.251907 -0.44455,0.251908 -0.68164,0.740905 -0.23709,0.488998 -0.23709,1.185448 0,0.711269 0.29637,1.229903 0.31118,0.518633 0.85945,0.814995 0.56308,0.281544 1.31881,0.281544 0.51863,0 0.94836,-0.162999 0.42972,-0.162999 0.91872,-0.563088 l 1.00763,1.40772 q -0.42973,0.38527 -0.94836,0.651996 -0.51863,0.251908 -1.0669,0.385271 -0.54827,0.133363 -1.08172,0.133363 z m 8.03141,0 q -1.02245,0 -1.83744,-0.518634 -0.815,-0.533452 -1.28918,-1.437356 -0.45936,-0.918722 -0.45936,-2.118988 0,-1.17063 0.45936,-2.089352 0.47418,-0.918722 1.27436,-1.452174 0.81499,-0.533451 1.85226,-0.533451 0.54827,0 1.05209,0.177817 0.51863,0.162999 0.91872,0.459361 0.4149,0.296362 0.66681,0.666814 0.25191,0.355635 0.28155,0.755723 l -0.53346,0.08891 v -5.112244 h 2.10417 v 10.965394 h -1.98562 l -0.0889,-1.807809 0.41491,0.04446 q -0.0296,0.370452 -0.26673,0.711268 -0.23709,0.340817 -0.63718,0.622361 -0.38527,0.266725 -0.88908,0.429725 -0.489,0.148181 -1.03727,0.148181 z m 0.47418,-1.748536 q 0.59272,0 1.03727,-0.296362 0.44454,-0.296362 0.69645,-0.814996 0.2519,-0.518633 0.2519,-1.215084 0,-0.681633 -0.2519,-1.200266 -0.25191,-0.533452 -0.69645,-0.814996 -0.44455,-0.296362 -1.03727,-0.296362 -0.59272,0 -1.03727,0.296362 -0.42972,0.281544 -0.68163,0.814996 -0.23709,0.518633 -0.23709,1.200266 0,0.696451 0.23709,1.215084 0.25191,0.518634 0.68163,0.814996 0.44455,0.296362 1.03727,0.296362 z m 17.4409,1.600355 v -10.37267 h 2.22272 v 10.37267 z m -6.53478,0 v -10.37267 h 2.22272 v 10.37267 z m 0.88909,-4.163887 0.0148,-2.015261 h 6.77187 v 2.015261 z m 13.20294,4.312068 q -0.978,0 -1.76336,-0.533452 -0.78536,-0.533452 -1.24472,-1.452174 -0.45936,-0.918722 -0.45936,-2.10417 0,-1.185448 0.45936,-2.089352 0.47418,-0.918722 1.27436,-1.437356 0.80018,-0.533451 1.82263,-0.533451 0.5779,0 1.05208,0.177817 0.489,0.162999 0.84463,0.459361 0.37046,0.296362 0.62236,0.681632 0.25191,0.385271 0.35564,0.829814 l -0.44455,-0.07409 v -1.911535 h 2.08936 v 7.838775 h -2.11899 v -1.881899 l 0.47418,-0.04445 q -0.11855,0.414906 -0.38527,0.785359 -0.26673,0.370452 -0.66682,0.666814 -0.38527,0.281544 -0.87427,0.459361 -0.48899,0.163 -1.03726,0.163 z m 0.5779,-1.822627 q 0.59273,0 1.03727,-0.281544 0.44454,-0.281544 0.68163,-0.785359 0.25191,-0.518633 0.25191,-1.200266 0,-0.666815 -0.25191,-1.17063 -0.23709,-0.503815 -0.68163,-0.785359 -0.44454,-0.296362 -1.03727,-0.296362 -0.5779,0 -1.02245,0.296362 -0.42972,0.281544 -0.68163,0.785359 -0.25191,0.503815 -0.25191,1.17063 0,0.681633 0.25191,1.200266 0.25191,0.503815 0.68163,0.785359 0.44455,0.281544 1.02245,0.281544 z m 6.31253,1.674446 v -7.838775 h 2.10417 v 7.838775 z m 1.03727,-9.453948 q -0.60755,0 -0.94836,-0.296362 -0.34082,-0.296362 -0.34082,-0.844632 0,-0.503815 0.34082,-0.814995 0.35563,-0.325999 0.94836,-0.325999 0.60754,0 0.94835,0.31118 0.34082,0.296362 0.34082,0.829814 0,0.518634 -0.35563,0.829814 -0.34082,0.31118 -0.93354,0.31118 z m 3.31924,9.453948 v -7.838775 h 2.03008 l 0.0741,2.519077 -0.35563,-0.518634 q 0.17782,-0.607542 0.57791,-1.096539 0.40008,-0.503816 0.93354,-0.78536 0.54827,-0.281543 1.14099,-0.281543 0.25191,0 0.489,0.04445 0.23709,0.04445 0.40009,0.103727 l -0.56309,2.311623 q -0.17782,-0.08891 -0.42973,-0.148181 -0.2519,-0.07409 -0.51863,-0.07409 -0.35563,0 -0.66681,0.133363 -0.29637,0.118544 -0.51864,0.355634 -0.22227,0.222271 -0.35563,0.533452 -0.11855,0.31118 -0.11855,0.681632 v 4.06016 z m 10.1504,0.148181 q -0.96318,0 -1.76335,-0.23709 -0.78536,-0.23709 -1.40772,-0.696451 -0.60754,-0.459361 -1.09654,-1.111357 l 1.3929,-1.585537 q 0.72609,1.007631 1.43736,1.378083 0.72608,0.355635 1.57071,0.355635 0.45937,0 0.815,-0.118545 0.37045,-0.133363 0.57791,-0.370453 0.20745,-0.237089 0.20745,-0.563087 0,-0.23709 -0.10373,-0.429725 -0.10372,-0.207454 -0.29636,-0.355635 -0.19264,-0.162999 -0.45936,-0.281544 -0.26673,-0.133362 -0.59272,-0.222271 -0.326,-0.103727 -0.71127,-0.162999 -0.82982,-0.192635 -1.45218,-0.459361 -0.62236,-0.281544 -1.03726,-0.681633 -0.41491,-0.414907 -0.62236,-0.93354 -0.19264,-0.518634 -0.19264,-1.17063 0,-0.666815 0.29636,-1.229902 0.29636,-0.577906 0.815,-0.992813 0.53345,-0.414907 1.21508,-0.637178 0.69645,-0.222272 1.46699,-0.222272 0.94836,0 1.65963,0.222272 0.71127,0.207453 1.2299,0.607542 0.53345,0.400088 0.88909,0.977994 l -1.40772,1.363266 q -0.31118,-0.414907 -0.68163,-0.696451 -0.35564,-0.281544 -0.78536,-0.414907 -0.41491,-0.148181 -0.85945,-0.148181 -0.489,0 -0.84463,0.133363 -0.35564,0.118545 -0.56309,0.355634 -0.19264,0.23709 -0.19264,0.577906 0,0.266726 0.13337,0.474179 0.13336,0.207454 0.38527,0.370453 0.2519,0.148181 0.60754,0.266726 0.35563,0.118545 0.78536,0.207453 0.81499,0.162999 1.46699,0.429725 0.652,0.266726 1.11136,0.651996 0.47418,0.370453 0.72608,0.889086 0.25191,0.503816 0.25191,1.140994 0,1.052085 -0.50381,1.79299 -0.50382,0.740905 -1.3929,1.140994 -0.88909,0.385271 -2.07454,0.385271 z m 7.6906,-2.504259 -0.62236,-1.733718 3.70453,-3.748979 h 2.77098 z m -2.00044,2.356078 V 32.440422 h 2.10417 v 10.965394 z m 5.30488,0 -2.81544,-3.541526 1.48181,-1.185448 3.86752,4.726974 z m 3.86753,0 v -7.838775 h 2.10417 v 7.838775 z m 1.03726,-9.453948 q -0.60754,0 -0.94836,-0.296362 -0.34081,-0.296362 -0.34081,-0.844632 0,-0.503815 0.34081,-0.814995 0.35564,-0.325999 0.94836,-0.325999 0.60754,0 0.94836,0.31118 0.34082,0.296362 0.34082,0.829814 0,0.518634 -0.35564,0.829814 -0.34081,0.31118 -0.93354,0.31118 z m 3.31925,9.453948 v -7.838775 h 2.01526 l 0.0593,1.600354 -0.4149,0.177818 q 0.163,-0.533452 0.5779,-0.963177 0.42973,-0.444543 1.02245,-0.711269 0.59273,-0.266725 1.24472,-0.266725 0.88909,0 1.48181,0.355634 0.60755,0.355634 0.90391,1.081721 0.31118,0.711269 0.31118,1.763354 v 4.801065 H 197.9243 V 38.76775 q 0,-0.533451 -0.14818,-0.889086 -0.14818,-0.355634 -0.45936,-0.518633 -0.29637,-0.177817 -0.74091,-0.148181 -0.35563,0 -0.66681,0.118545 -0.29637,0.103726 -0.51864,0.31118 -0.20745,0.207453 -0.34081,0.474179 -0.11855,0.266726 -0.11855,0.577906 v 4.712156 h -1.03727 q -0.34081,0 -0.60754,0 -0.26672,0 -0.45936,0 z m 17.42607,0.148181 q -0.96318,0 -1.76335,-0.23709 -0.78536,-0.23709 -1.40772,-0.696451 -0.60755,-0.459361 -1.09654,-1.111357 l 1.3929,-1.585537 q 0.72609,1.007631 1.43735,1.378083 0.72609,0.355635 1.57072,0.355635 0.45936,0 0.815,-0.118545 0.37045,-0.133363 0.5779,-0.370453 0.20746,-0.237089 0.20746,-0.563087 0,-0.23709 -0.10373,-0.429725 -0.10373,-0.207454 -0.29636,-0.355635 -0.19264,-0.162999 -0.45936,-0.281544 -0.26673,-0.133362 -0.59273,-0.222271 -0.32599,-0.103727 -0.71126,-0.162999 -0.82982,-0.192635 -1.45218,-0.459361 -0.62236,-0.281544 -1.03727,-0.681633 -0.4149,-0.414907 -0.62236,-0.93354 -0.19263,-0.518634 -0.19263,-1.17063 0,-0.666815 0.29636,-1.229902 0.29636,-0.577906 0.815,-0.992813 0.53345,-0.414907 1.21508,-0.637178 0.69645,-0.222272 1.46699,-0.222272 0.94836,0 1.65963,0.222272 0.71127,0.207453 1.2299,0.607542 0.53345,0.400088 0.88909,0.977994 l -1.40772,1.363266 q -0.31118,-0.414907 -0.68163,-0.696451 -0.35564,-0.281544 -0.78536,-0.414907 -0.41491,-0.148181 -0.85945,-0.148181 -0.489,0 -0.84463,0.133363 -0.35564,0.118545 -0.56309,0.355634 -0.19264,0.23709 -0.19264,0.577906 0,0.266726 0.13337,0.474179 0.13336,0.207454 0.38527,0.370453 0.2519,0.148181 0.60754,0.266726 0.35563,0.118545 0.78536,0.207453 0.81499,0.162999 1.46699,0.429725 0.652,0.266726 1.11136,0.651996 0.47418,0.370453 0.72608,0.889086 0.25191,0.503816 0.25191,1.140994 0,1.052085 -0.50381,1.79299 -0.50382,0.740905 -1.39291,1.140994 -0.88908,0.385271 -2.07453,0.385271 z m 9.33542,0 q -1.20027,0 -2.14863,-0.518634 -0.93354,-0.533452 -1.48181,-1.452174 -0.53345,-0.918722 -0.53345,-2.10417 0,-1.185448 0.53345,-2.089352 0.54827,-0.918722 1.48181,-1.452174 0.94836,-0.533451 2.14863,-0.533451 1.18545,0 2.11899,0.533451 0.94835,0.533452 1.48181,1.452174 0.53345,0.903904 0.53345,2.089352 0,1.185448 -0.53345,2.10417 -0.53346,0.918722 -1.48181,1.452174 -0.93354,0.518634 -2.11899,0.518634 z m 0,-1.837445 q 0.5779,0 1.03726,-0.281544 0.45937,-0.296362 0.71127,-0.800177 0.26673,-0.518634 0.26673,-1.155812 0,-0.651996 -0.26673,-1.155812 -0.2519,-0.518633 -0.71127,-0.800177 -0.45936,-0.296362 -1.03726,-0.296362 -0.59273,0 -1.05209,0.296362 -0.45936,0.296362 -0.72608,0.800177 -0.26673,0.503816 -0.25191,1.155812 -0.0148,0.637178 0.25191,1.155812 0.26672,0.503815 0.72608,0.800177 0.45936,0.281544 1.05209,0.281544 z m 5.7494,1.689264 V 32.440422 h 2.10417 v 10.965394 z m 6.8608,0.148181 q -0.85945,0 -1.48181,-0.370453 -0.60754,-0.385271 -0.94836,-1.081721 -0.32599,-0.711269 -0.32599,-1.704082 v -4.8307 h 2.10417 v 4.489884 q 0,0.533452 0.17781,0.93354 0.17782,0.385271 0.50382,0.592724 0.326,0.207454 0.80018,0.207454 0.34081,0 0.63717,-0.103727 0.29637,-0.118545 0.50382,-0.325998 0.20745,-0.207454 0.326,-0.488998 0.11854,-0.281543 0.11854,-0.607542 v -4.697337 h 2.10417 v 7.838775 h -2.00044 l -0.0741,-1.615173 0.38527,-0.177818 q -0.17782,0.54827 -0.59272,0.992813 -0.41491,0.444543 -0.99282,0.696451 -0.5779,0.251908 -1.24472,0.251908 z m 7.39423,-0.148181 v -9.824401 h 2.10417 v 9.824401 z m -1.46699,-5.956877 v -1.881898 h 5.17152 v 1.881898 z m 6.72741,5.956877 v -7.838775 h 2.10417 v 7.838775 z m 1.03726,-9.453948 q -0.60754,0 -0.94835,-0.296362 -0.34082,-0.296362 -0.34082,-0.844632 0,-0.503815 0.34082,-0.814995 0.35563,-0.325999 0.94835,-0.325999 0.60755,0 0.94836,0.31118 0.34082,0.296362 0.34082,0.829814 0,0.518634 -0.35564,0.829814 -0.34081,0.31118 -0.93354,0.31118 z m 6.9645,9.602129 q -1.20026,0 -2.14862,-0.518634 -0.93354,-0.533452 -1.48181,-1.452174 -0.53345,-0.918722 -0.53345,-2.10417 0,-1.185448 0.53345,-2.089352 0.54827,-0.918722 1.48181,-1.452174 0.94836,-0.533451 2.14862,-0.533451 1.18545,0 2.11899,0.533451 0.94836,0.533452 1.48181,1.452174 0.53345,0.903904 0.53345,2.089352 0,1.185448 -0.53345,2.10417 -0.53345,0.918722 -1.48181,1.452174 -0.93354,0.518634 -2.11899,0.518634 z m 0,-1.837445 q 0.57791,0 1.03727,-0.281544 0.45936,-0.296362 0.71127,-0.800177 0.26673,-0.518634 0.26673,-1.155812 0,-0.651996 -0.26673,-1.155812 -0.25191,-0.518633 -0.71127,-0.800177 -0.45936,-0.296362 -1.03727,-0.296362 -0.59272,0 -1.05208,0.296362 -0.45936,0.296362 -0.72609,0.800177 -0.26672,0.503816 -0.25191,1.155812 -0.0148,0.637178 0.25191,1.155812 0.26673,0.503815 0.72609,0.800177 0.45936,0.281544 1.05208,0.281544 z m 5.7346,1.689264 v -7.838775 h 2.01527 l 0.0593,1.600354 -0.41491,0.177818 q 0.163,-0.533452 0.57791,-0.963177 0.42972,-0.444543 1.02245,-0.711269 0.59272,-0.266725 1.24472,-0.266725 0.88908,0 1.48181,0.355634 0.60754,0.355634 0.9039,1.081721 0.31118,0.711269 0.31118,1.763354 v 4.801065 H 263.687 V 38.76775 q 0,-0.533451 -0.14818,-0.889086 -0.14818,-0.355634 -0.45936,-0.518633 -0.29636,-0.177817 -0.74091,-0.148181 -0.35563,0 -0.66681,0.118545 -0.29636,0.103726 -0.51863,0.31118 -0.20746,0.207453 -0.34082,0.474179 -0.11855,0.266726 -0.11855,0.577906 v 4.712156 h -1.03726 q -0.34082,0 -0.60755,0 -0.26672,0 -0.45936,0 z m 11.85447,0.148181 q -1.09654,0 -1.95599,-0.355635 -0.84463,-0.370452 -1.36327,-1.007631 l 1.304,-1.126175 q 0.45936,0.488997 1.02245,0.711269 0.56308,0.207453 1.12617,0.207453 0.22227,0 0.40009,-0.04445 0.19264,-0.05927 0.326,-0.148181 0.13336,-0.103727 0.19263,-0.23709 0.0741,-0.148181 0.0741,-0.31118 0,-0.325998 -0.26672,-0.518634 -0.14818,-0.07409 -0.45936,-0.177817 -0.31118,-0.118545 -0.80018,-0.251907 -0.75572,-0.192636 -1.28918,-0.444543 -0.51863,-0.266726 -0.82981,-0.592724 -0.26672,-0.311181 -0.41491,-0.666815 -0.13336,-0.370452 -0.13336,-0.814995 0,-0.533452 0.23709,-0.963177 0.23709,-0.444543 0.652,-0.755723 0.42972,-0.31118 0.97799,-0.474179 0.54827,-0.177817 1.15581,-0.177817 0.60755,0 1.18545,0.148181 0.57791,0.148181 1.06691,0.429724 0.50381,0.266726 0.87426,0.637179 l -1.12617,1.24472 q -0.26673,-0.251908 -0.60754,-0.459361 -0.326,-0.207453 -0.68164,-0.325998 -0.35563,-0.118545 -0.63718,-0.118545 -0.2519,0 -0.45936,0.04445 -0.19263,0.04445 -0.32599,0.133363 -0.13337,0.08891 -0.20746,0.23709 -0.0593,0.133363 -0.0593,0.296362 0,0.162999 0.0741,0.31118 0.0889,0.148181 0.23709,0.251908 0.163,0.08891 0.47418,0.207453 0.326,0.118545 0.87427,0.266726 0.71127,0.192635 1.20026,0.429725 0.50382,0.237089 0.80018,0.548269 0.25191,0.266726 0.37045,0.607543 0.11855,0.340816 0.11855,0.755723 0,0.726087 -0.41491,1.303992 -0.40009,0.563088 -1.11136,0.889086 -0.71127,0.311181 -1.60035,0.311181 z"
       id="text18"
       aria-label="Cosmed HairSkin Solutions" />
    <path
       id="path15"
       style="fill:url(#linearGradient18);stroke:none;stroke-width:0.92604;stroke-opacity:1"
       d="m 39.047319,13.616769 a 1.4060932,1.4060932 0 0 0 -1.406113,1.406078 v 0.168075 a 1.4060932,1.4060932 0 0 0 1.406113,1.4061 h 8.158632 a 1.4060932,1.4060932 0 0 0 1.406075,-1.4061 v -0.168075 a 1.4060932,1.4060932 0 0 0 -1.406075,-1.406078 z m -0.560808,3.450968 v 4.562118 c -2.348615,0.559869 -4.57679,1.503784 -6.58447,2.795155 -4.572026,2.94084 -8.02136,7.625739 -9.265929,13.357896 -1.244543,5.732109 -0.04847,11.426112 2.892381,15.998137 2.940859,4.572024 7.592224,8.188046 13.357886,9.26648 15.3216,2.865862 24.60826,-9.641811 25.19323,-17.67338 0.0092,-0.07176 0.01418,-0.144681 0.01751,-0.218048 8.25e-4,-0.0224 0.0037,-0.04609 0.0047,-0.06872 l -0.0028,0.0023 c 3.99e-4,-0.01738 0.0028,-0.03465 0.0028,-0.05227 v -0.04889 -5.743008 c -2.13e-4,0.0047 -8.25e-4,0.01167 -8.25e-4,0.01692 0.02261,-0.509569 -0.09388,-1.031564 -0.367996,-1.506048 -0.502118,-0.86965 -1.404824,-1.364295 -2.340377,-1.385227 -0.490059,-0.0105 -0.989554,0.108277 -1.445082,0.371293 -0.233682,0.138147 -0.445707,0.309874 -0.629463,0.509709 l -0.057,0.05495 -0.271883,0.265292 C 57.842704,36.310579 55.973269,36.01361 54.49244,36.85836 c -0.247889,0.147143 -0.477474,0.323234 -0.683807,0.524539 l -0.10655,0.101626 -2.605124,2.478794 -1.216054,1.156713 -2.270082,2.159679 -0.400405,0.381211 -0.904616,-1.104021 -4.36548,-5.327773 -0.160394,-0.196077 c -0.407449,-0.446435 -0.983475,-0.701377 -1.587887,-0.703068 -0.565591,8.4e-4 -1.107891,0.225002 -1.510448,0.622326 l -0.01918,0.01657 -0.657998,0.554735 c -0.05291,-0.06149 -0.107647,-0.120261 -0.16424,-0.17797 -0.674401,-0.648719 -1.572754,-1.013537 -2.508453,-1.017212 l 5.64e-4,8.28e-4 c -0.638794,-2.3e-5 -1.266506,0.168344 -1.819687,0.487715 -0.210068,0.129618 -0.406494,0.279958 -0.586063,0.449305 l -0.202125,0.173559 -3.592128,3.082965 c 1.122682,-7.903748 8.686808,-14.143525 17.335044,-14.415735 7.594144,-0.239027 14.151106,3.965741 17.235622,9.966234 -0.57358,-1.868007 -1.396391,-3.644083 -2.445832,-5.275594 -2.940832,-4.572037 -7.625763,-8.021944 -13.357885,-9.266492 -0.04476,-0.0105 -0.08934,-0.01634 -0.134027,-0.0259 v -4.437983 z m 1.707643,20.652536 c 0.201217,2.56e-4 0.394159,0.07934 0.537722,0.220265 0.03994,0.0392 0.07544,0.08214 0.105979,0.129058 l 1.202319,1.46598 2.614464,3.187871 1.553291,1.893828 -0.703603,0.670094 -0.224099,0.213113 c -0.112851,0.06359 -0.240067,0.09754 -0.369637,0.09883 -0.234692,-0.0082 -0.45298,-0.122711 -0.592652,-0.311426 -0.02947,-0.03057 -0.05644,-0.06336 -0.08026,-0.09824 l -1.161127,-1.424239 -2.590286,-3.176332 -1.610416,-1.975117 0.913412,-0.770613 c 0.0092,-0.0082 0.01695,-0.01459 0.02595,-0.02147 0.115546,-0.06604 0.245905,-0.101043 0.378987,-0.101627 z m -4.914732,0.0093 c 0.611075,-0.0105 1.217703,0.229494 1.662592,0.694259 l -3.398232,2.867671 -1.05843,0.893078 -3.286726,2.773173 c -0.12362,-0.699112 -0.195778,-1.412121 -0.20928,-2.13604 -0.0028,-0.112128 0.0028,-0.222867 0.0028,-0.334505 l 2.724851,-2.343668 1.933373,-1.66368 c 0.04791,-0.04492 0.09767,-0.08798 0.149403,-0.128533 0.122665,-0.125651 0.25962,-0.23632 0.408097,-0.330106 0.336013,-0.190022 0.704399,-0.285792 1.071052,-0.291649 z m 26.018219,0.03244 h 0.0028 c 0.489438,-0.01202 0.970064,0.237137 1.231975,0.690957 0.108266,0.187619 0.170986,0.397838 0.182923,0.614078 4.6e-5,0.0093 4.6e-5,0.01727 0,0.0259 l 8.16e-4,2.452437 5.55e-4,1.083672 5.38e-4,2.397516 c 1.11e-4,0.763309 -0.61861,1.382392 -1.381916,1.382462 -0.763304,-7e-5 -1.382044,-0.619153 -1.381943,-1.382462 l 0.0075,-2.37005 0.0028,-1.141358 0.0075,-2.183831 c -2.13e-4,-0.01412 -2.13e-4,-0.02835 0,-0.04236 -0.03782,-0.346394 0.05728,-0.694247 0.265302,-0.973819 0.02409,-0.0252 0.04875,-0.04912 0.0746,-0.07246 0.09548,-0.116211 0.209021,-0.215971 0.336692,-0.295487 0.205916,-0.118895 0.429867,-0.178996 0.651954,-0.18511 z m -4.998221,0.0126 c 0.63152,0.0023 1.252521,0.271323 1.690041,0.774988 l -3.198301,3.113722 -0.991955,0.966726 -0.342195,0.332288 -1.982259,1.931176 c -0.04458,0.04725 -0.0912,0.09253 -0.139505,0.135662 -0.113143,0.102093 -0.236064,0.192437 -0.367441,0.269678 -0.958183,0.537432 -2.164867,0.304169 -2.85393,-0.551433 l 3.220268,-3.07915 0.998553,-0.954591 0.385578,-0.368552 1.922946,-1.838907 c 0.158003,-0.17553 0.343077,-0.325147 0.547593,-0.443249 0.349017,-0.196019 0.731684,-0.290003 1.110607,-0.288358 z m -18.469814,1.724107 1.046337,1.290205 4.258366,5.249773 c -0.01196,-0.01773 -0.02456,-0.03535 -0.03633,-0.05332 0.07359,0.113995 0.158244,0.221374 0.253218,0.320761 l 0.04939,0.06161 c 0.402538,0.396857 0.9452,0.619888 1.510467,0.621206 0.563727,-0.0023 1.104555,-0.223847 1.506591,-0.619013 l 0.02957,-0.02812 0.658554,-0.630004 0.02743,0.03349 c 0.05152,0.06744 0.105314,0.132944 0.16148,0.19665 1.165099,1.145768 2.951655,1.374516 4.367685,0.559134 0.328766,-0.190921 0.62582,-0.432282 0.879899,-0.715121 l 2.476591,-2.405742 1.169374,-1.136411 2.374414,-2.30632 5.75e-4,-0.0023 v 2.930829 2.159667 5.49e-4 c 9e-6,0.04655 0.0047,0.09229 0.0083,0.138415 l -0.0037,-0.0035 C 58.331279,50.506375 52.591948,56.842936 44.933053,57.175551 37.601302,57.493942 31.41379,52.756876 29.557199,46.480439 l 3.973322,-3.353192 1.20561,-1.017224 2.831956,-2.389815 z" />
    <text
       xml:space="preserve"
       style="font-size:7.05556px;letter-spacing:0.9525px;fill:#000000;fill-opacity:1;stroke:none;stroke-width:0.264584;stroke-opacity:1"
       x="123.74714"
       y="55.582199"
       id="text2"><tspan
         sodipodi:role="line"
         style="font-style:normal;font-variant:normal;font-weight:300;font-stretch:normal;font-size:7.05556px;font-family:Lexend;-inkscape-font-specification:'Lexend Light';letter-spacing:0.9525px;baseline-shift:baseline;fill:#000000;fill-opacity:1;stroke-width:0.264584"
         x="123.74714"
         y="55.582199"
         id="tspan2">Cosmetic Medical Clinic</tspan></text>
  </g>
</svg>
