<?xml version="1.0" encoding="UTF-8" standalone="no"?>
<!-- Created with Inkscape (http://www.inkscape.org/) -->

<svg
   width="1240.52"
   height="442.85001"
   viewBox="0 0 328.22053 117.17058"
   version="1.1"
   id="svg1"
   inkscape:export-filename="logo5.pdf"
   inkscape:export-xdpi="96"
   inkscape:export-ydpi="96"
   sodipodi:docname="logo5.svg"
   inkscape:version="1.3.2 (091e20e, 2023-11-25, custom)"
   xmlns:inkscape="http://www.inkscape.org/namespaces/inkscape"
   xmlns:sodipodi="http://sodipodi.sourceforge.net/DTD/sodipodi-0.dtd"
   xmlns:xlink="http://www.w3.org/1999/xlink"
   xmlns="http://www.w3.org/2000/svg"
   xmlns:svg="http://www.w3.org/2000/svg">
  <sodipodi:namedview
     id="namedview1"
     pagecolor="#ffffff"
     bordercolor="#000000"
     borderopacity="0.25"
     inkscape:showpageshadow="2"
     inkscape:pageopacity="0.0"
     inkscape:pagecheckerboard="0"
     inkscape:deskcolor="#d1d1d1"
     inkscape:document-units="mm"
     inkscape:zoom="1.1656402"
     inkscape:cx="620.26001"
     inkscape:cy="221.76655"
     inkscape:window-width="2560"
     inkscape:window-height="1377"
     inkscape:window-x="-8"
     inkscape:window-y="-8"
     inkscape:window-maximized="1"
     inkscape:current-layer="layer1" />
  <defs
     id="defs1">
    <linearGradient
       inkscape:collect="always"
       xlink:href="#linearGradient60"
       id="linearGradient108"
       x1="194.35774"
       y1="181.99606"
       x2="233.83328"
       y2="181.99606"
       gradientUnits="userSpaceOnUse"
       gradientTransform="matrix(2.1731553,0,0,2.1731553,-405.21294,-337.84968)" />
    <linearGradient
       id="linearGradient60"
       inkscape:collect="always">
      <stop
         style="stop-color:#9958f3;stop-opacity:1;"
         offset="0.07662082"
         id="stop59" />
      <stop
         style="stop-color:#4feac8;stop-opacity:1;"
         offset="1"
         id="stop60" />
    </linearGradient>
    <linearGradient
       inkscape:collect="always"
       xlink:href="#linearGradient60"
       id="linearGradient2"
       x1="128.4019"
       y1="53.685131"
       x2="310.37045"
       y2="53.685131"
       gradientUnits="userSpaceOnUse" />
  </defs>
  <g
     inkscape:label="Layer 1"
     inkscape:groupmode="layer"
     id="layer1">
    <path
       id="path103"
       style="fill:url(#linearGradient108);stroke-width:0.926043;stroke-opacity:0.6"
       d="m 51.709131,6.6951448 a 2.8749033,2.8749033 0 0 0 -2.874899,2.87489 v 0.343638 a 2.8749033,2.8749033 0 0 0 2.874899,2.8749142 h 16.681191 a 2.8749033,2.8749033 0 0 0 2.87488,-2.8749142 v -0.343638 a 2.8749033,2.8749033 0 0 0 -2.87488,-2.87489 z m -1.146592,7.0558662 v 9.327704 c -4.802001,1.144711 -9.357747,3.074644 -13.462645,5.715003 -9.347988,6.012837 -16.400507,15.591628 -18.945162,27.311563 -2.544592,11.719934 -0.09907,23.361905 5.913783,32.709905 6.012874,9.34798 15.523084,16.741294 27.311564,18.946294 31.326621,5.85951 50.314151,-19.713704 51.510181,-36.135084 0.0168,-0.14668 0.0289,-0.29583 0.0361,-0.44582 0.002,-0.0461 0.009,-0.0944 0.0109,-0.1404 l -0.004,0.004 c 8e-4,-0.0354 0.007,-0.071 0.007,-0.10669 v -0.1 -11.74219 c -4.2e-4,0.0109 -0.002,0.02325 -0.002,0.03477 0.0461,-1.041874 -0.19208,-2.109179 -0.75243,-3.079295 -1.02663,-1.778096 -2.872317,-2.789442 -4.785133,-2.832229 -1.002006,-0.02239 -2.023261,0.221357 -2.954639,0.759146 -0.477785,0.282468 -0.911291,0.633543 -1.286989,1.042159 l -0.116666,0.112352 -0.555912,0.542396 c -2.344103,-2.579904 -6.166362,-3.187105 -9.19408,-1.459905 -0.506857,0.300854 -0.976223,0.660879 -1.398126,1.072475 l -0.217873,0.207758 -5.326412,5.068143 -2.486363,2.365046 -4.641413,4.415676 -0.818672,0.779388 -1.849581,-2.257262 -8.925666,-10.893179 -0.32792,-0.400927 c -0.833104,-0.912745 -2.010863,-1.43402 -3.246613,-1.437453 -1.156394,0.0021 -2.265201,0.460013 -3.08825,1.272381 l -0.03938,0.03368 -1.345342,1.134235 c -0.108289,-0.125609 -0.220094,-0.245871 -0.335797,-0.363849 -1.378877,-1.326386 -3.21564,-2.072281 -5.12877,-2.079819 l 0.0011,0.0021 c -1.30605,-4.6e-5 -2.589478,0.344183 -3.720529,0.997216 -0.429506,0.264994 -0.831113,0.572386 -1.198264,0.918635 l -0.413273,0.354857 -7.344458,6.303452 C 33.734746,45.547385 49.200377,32.789529 66.88261,32.232964 c 15.527001,-0.488721 28.933408,8.108389 35.24,20.376982 -1.17271,-3.819298 -2.855066,-7.450685 -5.000752,-10.786501 -6.012834,-9.347978 -15.59168,-16.401664 -27.311586,-18.946278 -0.09153,-0.01948 -0.182434,-0.03348 -0.274007,-0.05281 v -9.073896 z m 3.491428,42.226249 c 0.411389,5.19e-4 0.805909,0.162118 1.099439,0.450343 0.08147,0.07997 0.154157,0.167981 0.216658,0.263909 l 2.458276,2.997302 5.345512,6.517943 3.175887,3.872139 -1.438593,1.37008 -0.45818,0.43572 c -0.230755,0.12994 -0.490833,0.1995 -0.755771,0.20213 -0.47988,-0.0151 -0.926163,-0.2509 -1.211733,-0.63676 -0.06012,-0.0624 -0.115408,-0.12953 -0.164002,-0.20102 l -2.374035,-2.91196 -5.296095,-6.494368 -3.292678,-4.038334 1.867574,-1.575581 c 0.01675,-0.01508 0.03477,-0.02977 0.05279,-0.04391 0.236222,-0.13516 0.502751,-0.206666 0.774832,-0.207757 z m -10.048673,0.01739 c 1.249413,-0.01948 2.489715,0.469249 3.399352,1.419482 l -6.948066,5.863217 -2.164014,1.826017 -6.720116,5.67007 c -0.252707,-1.42944 -0.400246,-2.88724 -0.427852,-4.367373 -0.0041,-0.229247 0.0063,-0.455669 0.0063,-0.683912 l 5.571263,-4.791896 3.95298,-3.401576 c 0.09802,-0.09192 0.199818,-0.179711 0.305488,-0.262797 0.25078,-0.25689 0.53084,-0.483157 0.83438,-0.674917 0.68703,-0.388539 1.440204,-0.584341 2.189882,-0.596315 z m 53.196931,0.06627 h 0.0041 c 1.000708,-0.02454 1.983402,0.484854 2.518894,1.412747 0.221349,0.383606 0.349601,0.813412 0.373981,1.25554 1e-4,0.01739 1e-4,0.03542 0,0.05281 l 0.002,5.014251 10e-4,2.215684 0.001,4.901954 c 2e-4,1.56067 -1.264857,2.82647 -2.825517,2.8266 -1.560642,-1.3e-4 -2.825722,-1.26593 -2.82549,-2.8266 l 0.01257,-4.845799 0.0063,-2.333622 0.01257,-4.465072 c -4.39e-4,-0.0289 -4.39e-4,-0.05802 0,-0.08649 -0.07729,-0.70825 0.117295,-1.41946 0.542403,-1.991087 0.04922,-0.0515 0.0997,-0.100604 0.152691,-0.148209 0.195211,-0.237612 0.427391,-0.441585 0.688412,-0.60418 0.421024,-0.243069 0.878889,-0.36598 1.333006,-0.378456 z m -10.219379,0.02587 c 1.291221,0.0041 2.56093,0.554718 3.455487,1.584554 l -6.539296,6.366348 -2.02812,1.976506 -0.69966,0.679416 -4.052932,3.948502 c -0.09111,0.0967 -0.186413,0.18907 -0.285255,0.27738 -0.231342,0.20885 -0.482644,0.39345 -0.751268,0.55139 -1.959085,1.09886 -4.426284,0.62192 -5.835154,-1.1275 l 6.584181,-6.295591 2.041652,-1.951774 0.78832,-0.753542 3.931701,-3.759841 c 0.323041,-0.358876 0.70146,-0.66479 1.119615,-0.906273 0.713608,-0.400792 1.495981,-0.592944 2.270729,-0.589575 z m -37.763429,3.525118 2.139341,2.637948 8.706654,10.73374 c -0.02429,-0.0363 -0.05007,-0.0722 -0.07395,-0.10887 0.150388,0.23298 0.323522,0.45264 0.517706,0.65583 l 0.101172,0.12581 c 0.823027,0.81144 1.932567,1.26743 3.088292,1.27012 1.152603,-0.004 2.258394,-0.45768 3.080416,-1.26563 l 0.06074,-0.0574 1.346474,-1.28809 0.05614,0.0684 c 0.105356,0.13799 0.215339,0.2718 0.330163,0.40206 2.382181,2.34265 6.034971,2.81035 8.930148,1.14322 0.672242,-0.39035 1.279574,-0.88387 1.799082,-1.46218 l 5.063631,-4.91876 2.390895,-2.323517 4.854783,-4.71551 0.0011,-0.0041 v 5.992391 4.415666 10e-4 c 2.1e-5,0.0954 0.01046,0.18863 0.01466,0.28299 l -0.0084,-0.009 c -0.483425,10.92886 -12.218098,23.8846 -27.877516,24.56467 -14.9905,0.65102 -27.641511,-9.03442 -31.437505,-21.86725 l 8.123855,-6.855954 2.464978,-2.079818 5.790247,-4.886211 z" />
    <text
       xml:space="preserve"
       style="font-size:18.3444px;letter-spacing:1.51341px;fill:#1d1d20;fill-opacity:1;stroke:none;stroke-width:0.264584;stroke-opacity:1"
       x="128.26555"
       y="95.856781"
       id="text13"><tspan
         sodipodi:role="line"
         style="font-style:normal;font-variant:normal;font-weight:300;font-stretch:normal;font-size:18.3444px;font-family:Lexend;-inkscape-font-specification:'Lexend Light';letter-spacing:1.51341px;baseline-shift:baseline;fill:#1d1d20;fill-opacity:1;stroke-width:0.264584"
         x="128.26555"
         y="95.856781"
         id="tspan13">HairSkin Solutions</tspan></text>
    <text
       xml:space="preserve"
       style="font-size:29.2893px;letter-spacing:0px;fill:url(#linearGradient2);fill-opacity:1;stroke:none;stroke-width:0.264584;stroke-opacity:1"
       x="126.29307"
       y="51.611382"
       id="text15"><tspan
         sodipodi:role="line"
         style="font-style:normal;font-variant:normal;font-weight:600;font-stretch:normal;font-size:26.3604px;font-family:Lexend;-inkscape-font-specification:'Lexend Semi-Bold';letter-spacing:0px;baseline-shift:baseline;fill:url(#linearGradient2);fill-opacity:1;stroke-width:0.264584"
         x="126.29307"
         y="51.611382"
         id="tspan15"><tspan
           dy="19.178709"
           id="tspan14"
           style="font-style:normal;font-variant:normal;font-weight:600;font-stretch:normal;font-size:46.8629px;font-family:Lexend;-inkscape-font-specification:'Lexend Semi-Bold';letter-spacing:0px;baseline-shift:baseline;fill:url(#linearGradient2);fill-opacity:1;stroke-width:0.264584">Cosmed</tspan></tspan></text>
  </g>
</svg>
