{
  "accessors": [
    {
      "bufferView": 1,
      "componentType": 5126,
      "count": 65532,
      "max": [
        17.324979782104492,
        17.324979782104492,
        34.94153594970703
      ],
      "min": [
        -16.9426326751709,
        -17.324979782104492,
        -3.0258560180664063
      ],
      "type": "VEC3"
    },
    {
      "bufferView": 1,
      "byteOffset": 786384,
      "componentType": 5126,
      "count": 65532,
      "max": [
        0.9999289512634277,
        0.9997058510780334,
        1.0
      ],
      "min": [
        -0.9999289512634277,
        -0.9995139241218567,
        -1.0
      ],
      "type": "VEC3"
    },
    {
      "bufferView": 0,
      "componentType": 5125,
      "count": 320469,
      "type": "SCALAR"
    },
    {
      "bufferView": 1,
      "byteOffset": 1572768,
      "componentType": 5126,
      "count": 65532,
      "max": [
        16.76227378845215,
        17.324979782104492,
        19.913795471191406
      ],
      "min": [
        -17.324979782104492,
        -17.324979782104492,
        -3.026495933532715
      ],
      "type": "VEC3"
    },
    {
      "bufferView": 1,
      "byteOffset": 2359152,
      "componentType": 5126,
      "count": 65532,
      "max": [
        0.9999639987945557,
        0.9999364614486694,
        1.0
      ],
      "min": [
        -0.9999639987945557,
        -0.9995755553245544,
        -1.0
      ],
      "type": "VEC3"
    },
    {
      "bufferView": 0,
      "byteOffset": 1281876,
      "componentType": 5125,
      "count": 335142,
      "type": "SCALAR"
    },
    {
      "bufferView": 1,
      "byteOffset": 3145536,
      "componentType": 5126,
      "count": 65532,
      "max": [
        11.246146202087402,
        11.19495964050293,
        61.997840881347656
      ],
      "min": [
        -11.331181526184082,
        -11.368664741516113,
        5.006718158721924
      ],
      "type": "VEC3"
    },
    {
      "bufferView": 1,
      "byteOffset": 3931920,
      "componentType": 5126,
      "count": 65532,
      "max": [
        0.9998818635940552,
        0.999927282333374,
        0.9999732971191406
      ],
      "min": [
        -0.9999728202819824,
        -0.9999827146530151,
        -0.9999996423721313
      ],
      "type": "VEC3"
    },
    {
      "bufferView": 0,
      "byteOffset": 2622444,
      "componentType": 5125,
      "count": 345381,
      "type": "SCALAR"
    },
    {
      "bufferView": 1,
      "byteOffset": 4718304,
      "componentType": 5126,
      "count": 65532,
      "max": [
        11.376641273498535,
        11.398723602294922,
        68.11095428466797
      ],
      "min": [
        -11.391225814819336,
        -11.398724555969238,
        31.114078521728516
      ],
      "type": "VEC3"
    },
    {
      "bufferView": 1,
      "byteOffset": 5504688,
      "componentType": 5126,
      "count": 65532,
      "max": [
        0.9999728202819824,
        0.9999620914459229,
        0.9999310970306396
      ],
      "min": [
        -0.9999561309814453,
        -0.999927282333374,
        -0.9999303817749023
      ],
      "type": "VEC3"
    },
    {
      "bufferView": 0,
      "byteOffset": 4003968,
      "componentType": 5125,
      "count": 350991,
      "type": "SCALAR"
    },
    {
      "bufferView": 1,
      "byteOffset": 6291072,
      "componentType": 5126,
      "count": 65532,
      "max": [
        11.391225814819336,
        11.315484046936035,
        88.86585235595703
      ],
      "min": [
        -11.115467071533203,
        -11.315484046936035,
        55.126651763916016
      ],
      "type": "VEC3"
    },
    {
      "bufferView": 1,
      "byteOffset": 7077456,
      "componentType": 5126,
      "count": 65532,
      "max": [
        0.9999097585678101,
        0.9999856948852539,
        0.9999668598175049
      ],
      "min": [
        -0.9998828172683716,
        -0.9999856948852539,
        -0.9999668598175049
      ],
      "type": "VEC3"
    },
    {
      "bufferView": 0,
      "byteOffset": 5407932,
      "componentType": 5125,
      "count": 353442,
      "type": "SCALAR"
    },
    {
      "bufferView": 1,
      "byteOffset": 7863840,
      "componentType": 5126,
      "count": 65533,
      "max": [
        11.373553276062012,
        17.324979782104492,
        88.8658447265625
      ],
      "min": [
        -11.377760887145996,
        -17.324979782104492,
        -3.0206780433654785
      ],
      "type": "VEC3"
    },
    {
      "bufferView": 1,
      "byteOffset": 8650236,
      "componentType": 5126,
      "count": 65533,
      "max": [
        0.9998997449874878,
        0.9997569918632507,
        1.0
      ],
      "min": [
        -0.9999097585678101,
        -0.999927282333374,
        -1.0
      ],
      "type": "VEC3"
    },
    {
      "bufferView": 0,
      "byteOffset": 6821700,
      "componentType": 5125,
      "count": 242583,
      "type": "SCALAR"
    },
    {
      "bufferView": 1,
      "byteOffset": 9436632,
      "componentType": 5126,
      "count": 54523,
      "max": [
        17.25861930847168,
        17.324979782104492,
        88.82614135742188
      ],
      "min": [
        -17.324979782104492,
        -17.324979782104492,
        -3.024749994277954
      ],
      "type": "VEC3"
    },
    {
      "bufferView": 1,
      "byteOffset": 10090908,
      "componentType": 5126,
      "count": 54523,
      "max": [
        0.9994565844535828,
        0.9965243935585022,
        1.0
      ],
      "min": [
        -0.9993535280227661,
        -0.9995755553245544,
        -1.0
      ],
      "type": "VEC3"
    },
    {
      "bufferView": 0,
      "byteOffset": 7792032,
      "componentType": 5125,
      "count": 220032,
      "type": "SCALAR"
    }
  ],
  "asset": {
    "extras": {
      "author": "kex243 (https://sketchfab.com/kex243)",
      "license": "CC-BY-4.0 (http://creativecommons.org/licenses/by/4.0/)",
      "source": "https://sketchfab.com/3d-models/dna-molecular-3d-printable-8a38401c093a4b6db5805eba63b147a3",
      "title": "DNA molecular 3d printable"
    },
    "generator": "Sketchfab-13.17.0",
    "version": "2.0"
  },
  "bufferViews": [
    {
      "buffer": 0,
      "byteLength": 8672160,
      "name": "floatBufferViews",
      "target": 34963
    },
    {
      "buffer": 0,
      "byteLength": 10745184,
      "byteOffset": 8672160,
      "byteStride": 12,
      "name": "floatBufferViews",
      "target": 34962
    }
  ],
  "buffers": [
    {
      "byteLength": 19417344,
      "uri": "scene.bin"
    }
  ],
  "materials": [
    {
      "doubleSided": true,
      "name": "None",
      "pbrMetallicRoughness": {
        "metallicFactor": 0.0,
        "roughnessFactor": 0.6
      }
    }
  ],
  "meshes": [
    {
      "name": "Object_0",
      "primitives": [
        {
          "attributes": {
            "NORMAL": 1,
            "POSITION": 0
          },
          "indices": 2,
          "material": 0,
          "mode": 4
        }
      ]
    },
    {
      "name": "Object_1",
      "primitives": [
        {
          "attributes": {
            "NORMAL": 4,
            "POSITION": 3
          },
          "indices": 5,
          "material": 0,
          "mode": 4
        }
      ]
    },
    {
      "name": "Object_2",
      "primitives": [
        {
          "attributes": {
            "NORMAL": 7,
            "POSITION": 6
          },
          "indices": 8,
          "material": 0,
          "mode": 4
        }
      ]
    },
    {
      "name": "Object_3",
      "primitives": [
        {
          "attributes": {
            "NORMAL": 10,
            "POSITION": 9
          },
          "indices": 11,
          "material": 0,
          "mode": 4
        }
      ]
    },
    {
      "name": "Object_4",
      "primitives": [
        {
          "attributes": {
            "NORMAL": 13,
            "POSITION": 12
          },
          "indices": 14,
          "material": 0,
          "mode": 4
        }
      ]
    },
    {
      "name": "Object_5",
      "primitives": [
        {
          "attributes": {
            "NORMAL": 16,
            "POSITION": 15
          },
          "indices": 17,
          "material": 0,
          "mode": 4
        }
      ]
    },
    {
      "name": "Object_6",
      "primitives": [
        {
          "attributes": {
            "NORMAL": 19,
            "POSITION": 18
          },
          "indices": 20,
          "material": 0,
          "mode": 4
        }
      ]
    }
  ],
  "nodes": [
    {
      "children": [
        1
      ],
      "matrix": [
        1.0,
        0.0,
        0.0,
        0.0,
        0.0,
        2.220446049250313e-16,
        -1.0,
        0.0,
        0.0,
        1.0,
        2.220446049250313e-16,
        0.0,
        0.0,
        0.0,
        0.0,
        1.0
      ],
      "name": "Sketchfab_model"
    },
    {
      "children": [
        2,
        3,
        4,
        5,
        6,
        7,
        8
      ],
      "name": "DNA.obj.cleaner.materialmerger.gles"
    },
    {
      "mesh": 0,
      "name": "Object_2"
    },
    {
      "mesh": 1,
      "name": "Object_3"
    },
    {
      "mesh": 2,
      "name": "Object_4"
    },
    {
      "mesh": 3,
      "name": "Object_5"
    },
    {
      "mesh": 4,
      "name": "Object_6"
    },
    {
      "mesh": 5,
      "name": "Object_7"
    },
    {
      "mesh": 6,
      "name": "Object_8"
    }
  ],
  "scene": 0,
  "scenes": [
    {
      "name": "Sketchfab_Scene",
      "nodes": [
        0
      ]
    }
  ]
}
